<svg xmlns="http://www.w3.org/2000/svg" aria-label="Hello!" role="img" cursor="default" viewBox="0 0 374 113">
    <defs>
        <path id="letter-h"
              d="m0,109V7C0,4.79,1.79,3,4,3h18c2.21,0,4,1.79,4,4v34c0,2.21,1.79,4,4,4h34c2.21,0,4-1.79,4-4V7c0-2.21,1.79-4,4-4h18c2.21,0,4,1.79,4,4v102c0,2.21-1.79,4-4,4h-18c-2.21,0-4-1.79-4-4v-39c0-2.21-1.79-4-4-4H30c-2.2,0-4,1.8-4,4v39c0,2.21-1.79,4-4,4H4c-2.21,0-4-1.79-4-4Z"/>
        <path id="letter-e"
              d="m140.62,113c-7.85,0-14.76-1.62-20.74-4.88-5.98-3.25-10.63-7.82-13.95-13.72-3.33-5.9-4.99-12.83-4.99-20.78s1.51-14.44,4.54-20.66c3.02-6.23,7.41-11.2,13.16-14.93,5.75-3.72,12.67-5.59,20.77-5.59s15.05,1.71,20.55,5.14,9.64,8.12,12.41,14.1c2.77,5.98,4.16,12.81,4.61,20.51v2.38c-.45,2.21-2.24,4-4.45,4.42h-42.19c-2.45-.42-4.37,1.77-3.96,4.19.27,1.61.71,3.05,1.33,4.34,1.15,2.43,2.78,4.26,4.88,5.51,2.1,1.25,4.55,1.88,7.35,1.88,3.2,0,6.04-.66,8.51-1.99,1.9-1.02,3.41-2.62,4.53-4.8.68-1.32,2.05-2.14,3.53-2.14h15.1c2.71,0,4.69,2.66,3.81,5.22-1.18,3.47-3,6.57-5.45,9.29-3.63,4.03-8.04,7.11-13.24,9.26-5.2,2.15-10.58,3.22-16.12,3.22Zm-9.83-49h17.45c2.65,0,4.65-2.56,3.85-5.09-.21-.66-.46-1.3-.75-1.93-1-2.12-2.49-3.81-4.46-5.06-1.98-1.25-4.46-1.88-7.46-1.88-2.65,0-4.99.66-7.01,1.99-2.02,1.33-3.6,3.05-4.72,5.18-.22.42-.43.85-.6,1.28-1.08,2.62.88,5.5,3.72,5.5Z"/>
        <path id="letter-l"
              d="m210.98,112.95c-6.43,0-11.47-.73-15.14-2.17-3.66-1.45-6.34-3.34-8.04-5.66-1.69-2.32-2.75-4.91-3.18-7.76-.42-2.85-.64-5.67-.64-8.48V4c0-2.21,1.79-4,4-4h17.2c2.1,0,3.8,1.7,3.8,3.8v81.77c0,2.35.54,4.39,1.63,6.11,1.09,1.73,3.43,2.81,7.04,3.26h.13c1.8.13,3.2,1.63,3.2,3.44v9.53c0,1.77-1.16,3.35-2.86,3.84-.68.2-1.37.38-2.07.56-1.69.42-3.39.64-5.08.64Z"/>
        <path id="letter-o"
              d="m300.68,113c-7.8,0-14.58-1.66-20.33-4.99-5.75-3.33-10.2-7.97-13.35-13.95-3.15-5.97-4.73-12.94-4.73-20.89s1.61-15.21,4.84-21.34c3.22-6.12,7.72-10.89,13.5-14.29,5.77-3.4,12.51-5.1,20.21-5.1s14.64,1.71,20.36,5.14c5.72,3.42,10.15,8.2,13.27,14.32,3.12,6.13,4.69,13.21,4.69,21.26s-1.55,14.61-4.65,20.59c-3.1,5.98-7.53,10.68-13.28,14.1-5.75,3.43-12.6,5.14-20.55,5.14Zm.15-18.75c3.45,0,6.15-1.09,8.1-3.26,1.95-2.17,3.32-4.95,4.12-8.33.8-3.38,1.2-6.81,1.2-10.31s-.38-6.82-1.12-10.12c-.75-3.3-2.1-6.01-4.05-8.14s-4.7-3.19-8.25-3.19-6.31,1.04-8.29,3.11c-1.98,2.08-3.36,4.75-4.16,8.02-.8,3.28-1.2,6.71-1.2,10.31,0,3.4.38,6.79,1.12,10.16s2.11,6.18,4.09,8.4c1.97,2.23,4.79,3.34,8.44,3.34Z"/>
        <g id="exclamation-mark">
            <rect id="exclamation-mark-stroke" x="348" y="87" width="26" height="26" rx="4" ry="4"/>
            <path id="exclamation-mark-dot"
                  d="m348,7c-.2-2.35,2.65-4,5-4h16.99c2.34,0,4.18,1.99,3.99,4.32-1.34,16.4-4.66,64.06-4.66,64.06-.19,2.05-1.91,3.62-3.97,3.62h-8.52c-2.05,0-3.76-1.55-3.96-3.59,0,0-3.47-48.32-4.87-64.41"/>
        </g>
        <g id="hello">
            <use href="#letter-h"/>
            <use href="#letter-e"/>
            <use href="#letter-l"/>
            <use href="#letter-l" transform="translate(42,0)"/>
            <use href="#letter-o"/>
            <use href="#exclamation-mark"/>
        </g>
        <clipPath id="hello-clip">
            <use href="#letter-h"/>
            <use href="#letter-e"/>
            <use href="#letter-l"/>
            <use href="#letter-l" transform="translate(42,0)"/>
            <use href="#letter-o"/>
            <use href="#exclamation-mark-stroke"/>
            <use href="#exclamation-mark-dot"/>
        </clipPath>
    </defs>
    <use href="#hello"
         fill="white" fill-opacity=".6"
         stroke="white" stroke-opacity=".9" stroke-width="8px"
         clip-path="url(#hello-clip)"
    />
</svg>
