<svg xmlns="http://www.w3.org/2000/svg" preserveAspectRatio="xMidYMid slice" viewBox="0 0 320 180"><defs><radialGradient id="BackgroundGradient"><stop offset="0%" stop-color="#005093"/><stop offset="100%" stop-color="#002953"/></radialGradient><g id="sparkle" stroke="#fff" transform="scale(2)"><style>@keyframes sparkle{0%,16.666666%{opacity:1}16.6666666%,to{opacity:0}}@keyframes rainbow-updown{0%,49.99%{transform:translate(0,0)}50%,to{transform:translate(0,4px)}}@keyframes rainbow-leftright{0%,49.99%{transform:translate(0,0)}50%,to{transform:translate(-4px,0)}}@keyframes catrun{0%,16.666666%{opacity:1}16.6666666%,to{opacity:0}}.rainbow-piece0{animation:rainbow-updown .42s linear infinite}.rainbow-piece1{animation:rainbow-updown .42s linear -.21s infinite}.cat-frame{opacity:0}</style><path d="M4 0v2m3 2H5M4 7V5M0 4h2m1 0h1" style="animation:sparkle .42s linear 0s infinite"/><path d="M3 1h1m1 1h1m0 2h1M5 6h1M3 7h1M1 6h1M0 4h1m0-2h1" style="animation:sparkle .42s linear .07s infinite"/><path d="M3 1h1m2 3h1M3 7h1M0 4h1" style="animation:sparkle .42s linear .14s infinite"/><path d="M3 4h1" style="animation:sparkle .42s linear .21s infinite"/><path d="M3 3h1m0 1h1M3 5h1M2 4h1" style="animation:sparkle .42s linear .28s infinite"/><path d="M4 1v2m0 1h2M4 4v2M1 4h2" style="animation:sparkle .42s linear .35s infinite"/></g></defs><rect id="background" width="100%" height="100%" fill="url('#BackgroundGradient')"/><use id="sparkle1" href="#sparkle"><animateMotion dur="0.77s" path="M250 10 70 10" repeatCount="indefinite"/></use><use id="sparkle2" href="#sparkle"><animateMotion begin=".3" dur="0.77s" path="M255 23 65 23" repeatCount="indefinite"/></use><use id="sparkle3" href="#sparkle"><animateMotion begin=".5" dur="0.77s" path="M260 36 60 36" repeatCount="indefinite"/></use><use id="sparkle4" href="#sparkle"><animateMotion begin=".1" dur="0.77s" path="M260 130 60 130" repeatCount="indefinite"/></use><use id="sparkle5" href="#sparkle"><animateMotion begin=".4" dur="0.77s" path="M255 143 65 143" repeatCount="indefinite"/></use><use id="sparkle6" href="#sparkle"><animateMotion begin=".6" dur="0.77s" path="M250 166 70 166" repeatCount="indefinite"/></use><use id="sparkle7" href="#sparkle"><animateMotion dur="0.84s" path="M250 105 70 105" repeatCount="indefinite"/></use><use id="sparkle8" href="#sparkle"><animateMotion begin=".3" dur="0.84s" path="M250 73 70 73" repeatCount="indefinite"/></use><svg id="rainbow" y="59"><defs><linearGradient id="RainbowGradient" gradientTransform="rotate(90)"><stop offset="0%" stop-color="#FD1B00"/><stop offset="16.7%" stop-color="#FD1B00"/><stop offset="16.7%" stop-color="#FD9B01"/><stop offset="33.3%" stop-color="#FD9B01"/><stop offset="33.3%" stop-color="#FDEF01"/><stop offset="50%" stop-color="#FDEF01"/><stop offset="50%" stop-color="#20DB01"/><stop offset="66.7%" stop-color="#20DB01"/><stop offset="66.7%" stop-color="#008AFC"/><stop offset="83.3%" stop-color="#008AFC"/><stop offset="83.3%" stop-color="#6D3FFC"/><stop offset="100%" stop-color="#6D3FFC"/></linearGradient></defs><g style="animation:rainbow-leftright .42s linear infinite"><path fill="url('#RainbowGradient')" d="M0 0h30v54H0z" class="rainbow-piece rainbow-piece0"/><path fill="url('#RainbowGradient')" d="M30 0h30v54H30z" class="rainbow-piece rainbow-piece1"/><path fill="url('#RainbowGradient')" d="M59 0h30v54H59z" class="rainbow-piece rainbow-piece0"/><path fill="url('#RainbowGradient')" d="M89 0h30v54H89z" class="rainbow-piece rainbow-piece1"/><path fill="url('#RainbowGradient')" d="M118 0h30v54h-30z" class="rainbow-piece rainbow-piece0"/></g></svg><svg id="cat" width="102" height="73" x="120" y="59" preserveAspectRatio="xMinYMin meet" viewBox="0 0 34 21"><g class="cat-frame" style="animation:catrun .42s linear 0s infinite"><g id="layer1" display="inline" transform="translate(1)"><g id="g3832" transform="translate(4 -1032)"><path id="path3050" fill="#000" fill-opacity="1" stroke="none" d="M0 50v-3h1v-1h4v3H4v1z" transform="translate(0 1002)"/><path id="path3830" fill="#999" fill-opacity="1" stroke="none" d="M1 49v-2h3v1H3v1z" transform="translate(0 1002)"/></g><g id="g3841" transform="translate(4 -1032)"><path id="path3836" fill="#000" fill-opacity="1" stroke="none" d="M6 50v-2h4v1H9v1z" transform="translate(0 1002)"/><path id="rect3838" fill="#999" fill-opacity="1" stroke="none" d="M7 48h2v1H7z" transform="translate(0 1002)"/></g><g id="g3935" transform="matrix(-1 0 0 1 29 -1032)"><path id="path3937" fill="#000" fill-opacity="1" stroke="none" d="M6 50v-2h4v1H9v1z" transform="translate(0 1002)"/><path id="path3939" fill="#999" fill-opacity="1" stroke="none" d="M7 48h2v1H7z" transform="translate(0 1002)"/></g><g id="g3948" transform="translate(0 -1032)"><path id="path3941" fill="#000" fill-opacity="1" stroke="none" d="M24 49v-1h4v1h-1v1h-2v-1z" transform="translate(0 1002)"/><path id="rect3943" fill="#999" fill-opacity="1" stroke="none" d="M25 48h2v1h-2z" transform="translate(0 1002)"/></g><g id="layer1-0" transform="translate(0 -1032)"><path id="rect5270" fill="#fc9" fill-opacity="1" d="M7 1033h19v16H7z"/><path id="path5272" fill="#f9f" fill-opacity="1" stroke="none" d="M8 1046v-10h1v-1h1v-1h13v1h1v1h1v10h-1v1h-1v1H10v-1H9v-1z"/><path id="rect5030-3-6" fill="#f39" fill-opacity="1" d="M22 1037h1v1h-1zm-4-2h1v1h-1zm-3 0h1v1h-1zm-1 4h1v1h-1zm1 3h1v1h-1zm-2 3h1v1h-1zm-2-4h1v1h-1zm-2 2h1v1H9zm1 3h1v1h-1zm0-10h1v1h-1z"/><path id="path5412" fill="#000" fill-opacity="1" d="M8 1049h17v1H8zm0-17h17v1H8zm18 16v-14h1v14zm-20 0v-14h1v14zm1 0h1v1H7zm0-15h1v1H7zm18 0h1v1h-1zm0 15h1v1h-1z"/></g><g id="layer3" transform="translate(6)"><g id="g5869"><path id="path5777" fill="#999" fill-opacity="1" stroke="none" d="M11 15v-5h1V6h2v1h1v1h1v1h4V8h1V7h1V6h2v4h1v5h-1v1h-1v1H13v-1h-1v-1z"/><path id="rect5496-38" fill="#000" fill-opacity="1" stroke="none" d="M23 16h1v1h-1zm1-1h1v1h-1zm1-5h1v5h-1zm-1-4h1v4h-1zm-2-1h2v1h-2zm-6 3h4v1h-4zm-4-3h2v1h-2zm-1 1h1v4h-1zm-1 4h1v5h-1zm11-4h1v1h-1zm-1 1h1v1h-1zm-5 0h1v1h-1zm-1-1h1v1h-1zm-1 11h10v1H13zm-1-1h1v1h-1zm-1-1h1v1h-1z"/><path id="rect5779" fill="#f99" fill-opacity="1" stroke="none" d="M12 13h2v2h-2z"/><path id="rect5781" fill="#f99" fill-opacity="1" stroke="none" d="M23 13h2v2h-2z"/><path id="path5785" fill="#000" fill-opacity="1" stroke="none" d="M15 16v-2h1v1h2v-1h1v1h2v-1h1v2z"/><path id="rect5787" fill="#000" fill-opacity="1" stroke="none" d="M19 12h1v1h-1z"/><g id="g5857"><path id="path5795" fill="#000" fill-opacity="1" stroke="none" d="M21 13v-1h1v-1h1v2z"/><path id="path5797" fill="#fff" fill-opacity="1" stroke="none" d="M21 11h1v1h-1z"/></g><g id="g5861" transform="translate(-7)"><path id="path5863" fill="#000" fill-opacity="1" stroke="none" d="M21 13v-1h1v-1h1v2z"/><path id="path5865" fill="#fff" fill-opacity="1" stroke="none" d="M21 11h1v1h-1z"/></g></g></g><g id="g3486"><path id="path3954" fill="#000" fill-opacity="1" stroke="none" d="M0 10V7h4v1h1v1h1v5H5v-1H3v-1H2v-1H1v-1z"/><path id="path3956" fill="#999" fill-opacity="1" stroke="none" d="M1 9V8h2v1h1v1h1v1h1v1H4v-1H3v-1H2V9z"/></g></g></g><g class="cat-frame" style="animation:catrun .42s linear .07s infinite"><g id="g4196" transform="translate(1 -1032)"><g id="g3982"><path id="path3977" fill="#000" fill-opacity="1" stroke="none" d="M5 20v-3h1v-1h3v3H8v1z" transform="translate(0 1032)"/><path id="rect3979" fill="#999" fill-opacity="1" stroke="none" d="M6 17h2v2H6z" transform="translate(0 1032)"/></g><path d="M14 1052v-2h-4v1h1v1z"/><path fill="#999" d="M13 1050h-2v1h2z"/><path d="M24 1052v-2h-4v1h1v1z"/><path fill="#999" d="M23 1050h-2v1h2z"/><path fill="#fc9" d="M7 1033h19v16H7z"/><path fill="#f9f" d="M8 1046v-10h1v-1h1v-1h13v1h1v1h1v10h-1v1h-1v1H10v-1H9v-1z"/><path fill="#f39" d="M22 1037h1v1h-1zm-4-2h1v1h-1zm-3 0h1v1h-1zm-1 4h1v1h-1zm1 3h1v1h-1zm-2 3h1v1h-1zm-2-4h1v1h-1zm-2 2h1v1H9zm1 3h1v1h-1zm0-10h1v1h-1z"/><path d="M8 1049h17v1H8zm0-17h17v1H8zm18 16v-14h1v14zm-20 0v-14h1v14zm1 0h1v1H7zm0-15h1v1H7zm18 0h1v1h-1zm0 15h1v1h-1z"/><path fill="#999" d="M18 1047v-5h1v-4h2v1h1v1h1v1h4v-1h1v-1h1v-1h2v4h1v5h-1v1h-1v1H20v-1h-1v-1z"/><path d="M30 1048h1v1h-1zm1-1h1v1h-1zm1-5h1v5h-1zm-1-4h1v4h-1zm-2-1h2v1h-2zm-6 3h4v1h-4zm-4-3h2v1h-2zm-1 1h1v4h-1zm-1 4h1v5h-1zm11-4h1v1h-1zm-1 1h1v1h-1zm-5 0h1v1h-1zm-1-1h1v1h-1zm-1 11h10v1H20zm-1-1h1v1h-1zm-1-1h1v1h-1z"/><path fill="#f99" d="M19 1045h2v2h-2zm11 0h2v2h-2z"/><path d="M22 1048v-2h1v1h2v-1h1v1h2v-1h1v2zm4-4h1v1h-1zm2 1v-1h1v-1h1v2z"/><path fill="#fff" d="M28 1043h1v1h-1z"/><path d="M21 1045v-1h1v-1h1v2z"/><path fill="#fff" d="M21 1043h1v1h-1z"/><g id="g3986" transform="matrix(-1 0 0 1 35 0)"><path id="path3988" fill="#000" fill-opacity="1" stroke="none" d="M6 50v-2h4v1H9v1z" transform="translate(0 1002)"/><path id="path3990" fill="#999" fill-opacity="1" stroke="none" d="M7 48h2v1H7z" transform="translate(0 1002)"/></g><g id="g3996"><path id="path3992" fill="#000" stroke="none" d="M1 12H0v-2h1V9h2v1h1v1h2v4H4v-1H2v-1H1z" transform="translate(0 1032)"/><path id="path3994" fill="#999" fill-opacity="1" stroke="none" d="M1 12v-2h2v2h3v2H4v-1H2v-1z" transform="translate(0 1032)"/></g></g></g><g class="cat-frame" style="animation:catrun .42s linear .14s infinite"><g id="g4137" transform="translate(1 1)"><g id="g3806"><path d="M6 20v-4h4v3H9v1z"/><path fill="#999" d="M7 17h2v2H7z"/></g><path d="M15 20v-2h-4v1h1v1z"/><path fill="#999" d="M14 18h-2v1h2z"/><path d="M25 20v-2h-4v1h1v1z"/><path fill="#999" d="M24 18h-2v1h2z"/><path fill="#fc9" d="M7 1h19v16H7z"/><path fill="#f9f" d="M8 14V4h1V3h1V2h13v1h1v1h1v10h-1v1h-1v1H10v-1H9v-1z"/><path fill="#f39" d="M22 5h1v1h-1zm-4-2h1v1h-1zm-3 0h1v1h-1zm-1 4h1v1h-1zm1 3h1v1h-1zm-2 3h1v1h-1zm-2-4h1v1h-1zm-2 2h1v1H9zm1 3h1v1h-1zm0-10h1v1h-1z"/><path d="M8 17h17v1H8zM8 0h17v1H8zm18 16V2h1v14zM6 16V2h1v14zm1 0h1v1H7zM7 1h1v1H7zm18 0h1v1h-1zm0 15h1v1h-1z"/><path fill="#999" d="M18 15v-5h1V6h2v1h1v1h1v1h4V8h1V7h1V6h2v4h1v5h-1v1h-1v1H20v-1h-1v-1z"/><path d="M30 16h1v1h-1zm1-1h1v1h-1zm1-5h1v5h-1zm-1-4h1v4h-1zm-2-1h2v1h-2zm-6 3h4v1h-4zm-4-3h2v1h-2zm-1 1h1v4h-1zm-1 4h1v5h-1zm11-4h1v1h-1zm-1 1h1v1h-1zm-5 0h1v1h-1zm-1-1h1v1h-1zm-1 11h10v1H20zm-1-1h1v1h-1zm-1-1h1v1h-1z"/><path fill="#f99" d="M19 13h2v2h-2zm11 0h2v2h-2z"/><path d="M22 16v-2h1v1h2v-1h1v1h2v-1h1v2zm4-4h1v1h-1zm2 1v-1h1v-1h1v2z"/><path fill="#fff" d="M28 11h1v1h-1z"/><path d="M21 13v-1h1v-1h1v2z"/><path fill="#fff" d="M21 11h1v1h-1z"/><path d="M30 20v-2h-4v1h1v1z"/><path fill="#999" d="M29 18h-2v1h2z"/><g id="g4584"><path id="path3812" fill="#000" stroke="none" d="M0 14v-2h2v-1h3v-1h1v4H5v1H1v-1z"/><path id="path3814" fill="#999" stroke="none" d="M1 14v-1h1v-1h4v1H4v1z"/></g></g></g><g class="cat-frame" style="animation:catrun .42s linear .21s infinite"><g id="g4082" transform="translate(1)"><g transform="translate(0 -1031)"><path id="path3977-4" fill="#000" fill-opacity="1" stroke="none" d="M5 20v-3h1v-1h3v3H8v1z" transform="translate(0 1032)"/><path id="rect3979-3" fill="#999" fill-opacity="1" stroke="none" d="M6 17h2v2H6z" transform="translate(0 1032)"/></g><path d="M14 21v-2h-4v1h1v1z"/><path fill="#999" d="M13 19h-2v1h2z"/><path d="M24 21v-2h-4v1h1v1z"/><path fill="#999" d="M23 19h-2v1h2z"/><path fill="#fc9" d="M7 2h19v16H7z"/><path fill="#f9f" d="M8 15V5h1V4h1V3h13v1h1v1h1v10h-1v1h-1v1H10v-1H9v-1z"/><path fill="#f39" d="M22 6h1v1h-1zm-4-2h1v1h-1zm-3 0h1v1h-1zm-1 4h1v1h-1zm1 3h1v1h-1zm-2 3h1v1h-1zm-2-4h1v1h-1zm-2 2h1v1H9zm1 3h1v1h-1zm0-10h1v1h-1z"/><path d="M8 18h17v1H8zM8 1h17v1H8zm18 16V3h1v14zM6 17V3h1v14zm1 0h1v1H7zM7 2h1v1H7zm18 0h1v1h-1zm0 15h1v1h-1z"/><path fill="#999" d="M18 16v-5h1V7h2v1h1v1h1v1h4V9h1V8h1V7h2v4h1v5h-1v1h-1v1H20v-1h-1v-1z"/><path d="M30 17h1v1h-1zm1-1h1v1h-1zm1-5h1v5h-1zm-1-4h1v4h-1zm-2-1h2v1h-2zm-6 3h4v1h-4zm-4-3h2v1h-2zm-1 1h1v4h-1zm-1 4h1v5h-1zm11-4h1v1h-1zm-1 1h1v1h-1zm-5 0h1v1h-1zm-1-1h1v1h-1zm-1 11h10v1H20zm-1-1h1v1h-1zm-1-1h1v1h-1z"/><path fill="#f99" d="M19 14h2v2h-2zm11 0h2v2h-2z"/><path d="M22 17v-2h1v1h2v-1h1v1h2v-1h1v2zm4-4h1v1h-1zm2 1v-1h1v-1h1v2z"/><path fill="#fff" d="M28 12h1v1h-1z"/><path d="M21 14v-1h1v-1h1v2z"/><path fill="#fff" d="M21 12h1v1h-1z"/><path d="M29 21v-2h-4v1h1v1z"/><path fill="#999" d="M28 19h-2v1h2z"/><g id="g4887" transform="matrix(1 0 0 -1 0 1058)"><path id="path4889" fill="#000" stroke="none" d="M1 12H0v-2h1V9h2v1h1v1h2v4H4v-1H2v-1H1z" transform="translate(0 1032)"/><path id="path4891" fill="#999" fill-opacity="1" stroke="none" d="M1 12v-2h2v2h3v2H4v-1H2v-1z" transform="translate(0 1032)"/></g></g></g><g class="cat-frame" style="animation:catrun .42s linear .28s infinite"><g id="g4025" transform="translate(1)"><g id="g5089" transform="translate(0 1)"><path id="path5085" fill="#000" stroke="none" d="M3 20v-3h1v-1h1v-1h3v3H7v1H6v1z"/><path id="path5087" fill="#999" stroke="none" d="M4 19v-2h1v-1h2v2H6v1z"/></g><path d="M14 21v-2h-4v1h1v1z"/><path fill="#999" d="M13 19h-2v1h2z"/><path d="M22 21v-2h-4v1h1v1z"/><path fill="#999" d="M21 19h-2v1h2z"/><path fill="#fc9" d="M7 2h19v16H7z"/><path fill="#f9f" d="M8 15V5h1V4h1V3h13v1h1v1h1v10h-1v1h-1v1H10v-1H9v-1z"/><path fill="#f39" d="M22 6h1v1h-1zm-4-2h1v1h-1zm-3 0h1v1h-1zm-1 4h1v1h-1zm1 3h1v1h-1zm-2 3h1v1h-1zm-2-4h1v1h-1zm-2 2h1v1H9zm1 3h1v1h-1zm0-10h1v1h-1z"/><path d="M8 18h17v1H8zM8 1h17v1H8zm18 16V3h1v14zM6 17V3h1v14zm1 0h1v1H7zM7 2h1v1H7zm18 0h1v1h-1zm0 15h1v1h-1z"/><path fill="#999" d="M17 16v-5h1V7h2v1h1v1h1v1h4V9h1V8h1V7h2v4h1v5h-1v1h-1v1H19v-1h-1v-1z"/><path d="M29 17h1v1h-1zm1-1h1v1h-1zm1-5h1v5h-1zm-1-4h1v4h-1zm-2-1h2v1h-2zm-6 3h4v1h-4zm-4-3h2v1h-2zm-1 1h1v4h-1zm-1 4h1v5h-1zm11-4h1v1h-1zm-1 1h1v1h-1zm-5 0h1v1h-1zm-1-1h1v1h-1zm-1 11h10v1H19zm-1-1h1v1h-1zm-1-1h1v1h-1z"/><path fill="#f99" d="M18 14h2v2h-2zm11 0h2v2h-2z"/><path d="M21 17v-2h1v1h2v-1h1v1h2v-1h1v2zm4-4h1v1h-1zm2 1v-1h1v-1h1v2z"/><path fill="#fff" d="M27 12h1v1h-1z"/><path d="M20 14v-1h1v-1h1v2z"/><path fill="#fff" d="M20 12h1v1h-1z"/><path d="M27 21v-2h-4v1h1v1z"/><path fill="#999" d="M26 19h-2v1h2z"/><g id="g5097" transform="translate(0 1)"><path id="path5093" fill="#000" stroke="none" d="M-1 11V9h1V8h4v1h2v4H4v-1H1v-1z"/><path id="path5095" fill="#999" stroke="none" d="M0 10V9h3v1h2v1h1v1H5v-1H1v-1z"/></g></g></g><g class="cat-frame" style="animation:catrun .42s linear .35s infinite"><g id="g3968"><path d="M4 21v-3h1v-1h1v-1h3v3H8v1H7v1z"/><path fill="#999" d="M5 20v-2h1v-1h1v1h1v1H7v1z"/><path d="M28 21v-3h-1v-1h-3v3h1v1z"/><path fill="#999" d="M27 18h-2v2h2z"/><path d="M10 21v-2h4v1h-1v1z"/><path fill="#999" d="M11 19h2v1h-2z"/><path d="M19 21v-2h4v1h-1v1z"/><path fill="#999" d="M20 19h2v1h-2z"/><path fill="#fc9" d="M8 2h19v16H8z"/><path fill="#f9f" d="M9 15V5h1V4h1V3h13v1h1v1h1v10h-1v1h-1v1H11v-1h-1v-1z"/><path fill="#f39" d="M23 6h1v1h-1zm-4-2h1v1h-1zm-3 0h1v1h-1zm-1 4h1v1h-1zm1 3h1v1h-1zm-2 3h1v1h-1zm-2-4h1v1h-1zm-2 2h1v1h-1zm1 3h1v1h-1zm0-10h1v1h-1z"/><path d="M9 18h17v1H9zM9 1h17v1H9zm18 16V3h1v14zM7 17V3h1v14zm1 0h1v1H8zM8 2h1v1H8zm18 0h1v1h-1zm0 15h1v1h-1z"/><path fill="#999" d="M18 15v-5h1V6h2v1h1v1h1v1h4V8h1V7h1V6h2v4h1v5h-1v1h-1v1H20v-1h-1v-1z"/><path d="M30 16h1v1h-1zm1-1h1v1h-1zm1-5h1v5h-1zm-1-4h1v4h-1zm-2-1h2v1h-2zm-6 3h4v1h-4zm-4-3h2v1h-2zm-1 1h1v4h-1zm-1 4h1v5h-1zm11-4h1v1h-1zm-1 1h1v1h-1zm-5 0h1v1h-1zm-1-1h1v1h-1zm-1 11h10v1H20zm-1-1h1v1h-1zm-1-1h1v1h-1z"/><path fill="#f99" d="M19 13h2v2h-2zm11 0h2v2h-2z"/><path d="M22 16v-2h1v1h2v-1h1v1h2v-1h1v2zm4-4h1v1h-1zm2 1v-1h1v-1h1v2z"/><path fill="#fff" d="M28 11h1v1h-1z"/><path d="M21 13v-1h1v-1h1v2z"/><path fill="#fff" d="M21 11h1v1h-1z"/><path d="M2 11H1V9h1V8h2v1h1v1h2v4H5v-1H3v-1H2z"/><path fill="#999" d="M2 11V9h2v2h3v2H5v-1H3v-1z"/></g></g></svg></svg>