<?xml version="1.0" encoding="utf-8"?>
<!-- Generator: Adobe Illustrator 24.1.3, SVG Export Plug-In . SVG Version: 6.00 Build 0)  -->
<svg version="1.1" id="Layer_1" xmlns="http://www.w3.org/2000/svg" xmlns:xlink="http://www.w3.org/1999/xlink" x="0px" y="0px"
	 viewBox="0 0 127.8 108.4" style="enable-background:new 0 0 127.8 108.4;" xml:space="preserve">
<style type="text/css">
	.st0{fill-opacity:0.5;}
	.st1{opacity:0.5;}
</style>
<path class="st0" d="M0,108.4V0h43.4c15.1,0,26.2,2.5,33.1,7.4s10.4,12,10.4,21.3C87,33.4,85.7,38,83.1,42
	c-2.5,3.8-7.1,7.4-13.8,10.7c4,1.1,7.8,2.9,11.2,5.3c2.5,1.8,4.5,4.2,6,6.9c1.2,2.3,2,4.8,2.4,7.3c0.3,2.2,0.5,4.5,0.5,6.7
	c0,10.1-3.3,17.6-10,22.3c-6.7,4.8-17.9,7.2-33.6,7.2L0,108.4z M29.2,42.3h18.4c1.6,0,3.2-0.2,4.7-0.8c1.3-0.4,2.5-1.1,3.5-2.1
	c1-0.9,1.7-1.9,2.2-3.2c0.5-1.2,0.8-2.6,0.8-3.9c0.1-3-1.2-5.8-3.6-7.7c-2.5-1.9-5.6-2.9-8.7-2.8H29.2V42.3z M29.2,86.6h17.6
	c4.3,0,7.5-1.2,9.7-3.5c2-2.1,3.2-4.9,3.2-7.8c0-1.9-0.5-3.8-1.5-5.4c-1.1-1.6-2.5-2.9-4.2-3.7c-2-1-4.2-1.4-6.4-1.4H29.2V86.6z"/>
<g>
	<polygon class="st1" points="127.8,108.4 97.2,108.4 72.6,62.2 58.9,79.8 58.9,108.4 29.3,108.4 29.3,0 58.9,0 58.9,44.4 91.1,0 
		123,0 92.9,41.5 	"/>
</g>
</svg>
