<svg xmlns="http://www.w3.org/2000/svg" viewBox="0 0 127.8 108.4"><defs><style>.a{isolation:isolate;}.b{fill:#9e1f63;}.c{fill:#00aeef;mix-blend-mode:darken;}</style></defs><g class="a"><path class="b" d="M0,108.4V0H43.4C58.5,0,69.6,2.5,76.5,7.4s10.4,12,10.4,21.3A23.39,23.39,0,0,1,83.1,42c-2.5,3.8-7.1,7.4-13.8,10.7A36,36,0,0,1,80.5,58a21,21,0,0,1,6,6.9,24.09,24.09,0,0,1,2.4,7.3,50.35,50.35,0,0,1,.5,6.7c0,10.1-3.3,17.6-10,22.3s-17.9,7.2-33.6,7.2ZM29.2,42.3H47.6a12.57,12.57,0,0,0,4.7-.8,8.43,8.43,0,0,0,3.5-2.1A8,8,0,0,0,58,36.2a10.46,10.46,0,0,0,.8-3.9,9.33,9.33,0,0,0-3.6-7.7,13.73,13.73,0,0,0-8.7-2.8H29.2Zm0,44.3H46.8c4.3,0,7.5-1.2,9.7-3.5a11.4,11.4,0,0,0,3.2-7.8,10.23,10.23,0,0,0-1.5-5.4A10.66,10.66,0,0,0,54,66.2a14.22,14.22,0,0,0-6.4-1.4H29.2Z"/><polygon class="c" points="127.8 108.4 97.2 108.4 72.6 62.2 58.9 79.8 58.9 108.4 29.3 108.4 29.3 0 58.9 0 58.9 44.4 91.1 0 123 0 92.9 41.5 127.8 108.4"/></g></svg>