<?xml version="1.0" encoding="utf-8"?>
<!-- Generator: Adobe Illustrator 24.1.3, SVG Export Plug-In . SVG Version: 6.00 Build 0)  -->
<svg version="1.1"
	 id="Laag_1" inkscape:export-filename="/data/startme.git/shared/Logo/icon/path32.png" inkscape:export-xdpi="90" inkscape:export-ydpi="90" inkscape:version="0.91 r13725" sodipodi:docname="icon144.svg" xmlns:inkscape="http://www.inkscape.org/namespaces/inkscape" xmlns:sodipodi="http://sodipodi.sourceforge.net/DTD/sodipodi-0.dtd"
	 xmlns="http://www.w3.org/2000/svg" xmlns:xlink="http://www.w3.org/1999/xlink" x="0px" y="0px" viewBox="0 0 144 144"
	 style="enable-background:new 0 0 144 144;" xml:space="preserve">
<style type="text/css">
	.st0{fill:url(#rect12_1_);}
	.st1{fill:#FFFFFF;}
</style>
<linearGradient id="rect12_1_" gradientUnits="userSpaceOnUse" x1="-47.4491" y1="-413.9055" x2="79.0383" y2="-577.5668" gradientTransform="matrix(1.0918 0 0 -1.0918 64.1611 -457.0748)">
	<stop  offset="0.1831" style="stop-color:#2770BE"/>
	<stop  offset="0.6319" style="stop-color:#1A4B7F"/>
</linearGradient>
<rect id="rect12" inkscape:export-filename="/data/startme.git/app/assets/images/favicons/favicon-96.png" inkscape:export-xdpi="90" inkscape:export-ydpi="90" class="st0" width="144" height="144">
</rect>
<sodipodi:namedview  bordercolor="#666666" borderopacity="1" fit-margin-bottom="0" fit-margin-left="0" fit-margin-right="0" fit-margin-top="0" gridtolerance="10" guidetolerance="10" id="namedview18" inkscape:current-layer="Laag_1" inkscape:cx="22.906211" inkscape:cy="32.567967" inkscape:object-nodes="true" inkscape:pageopacity="0" inkscape:pageshadow="2" inkscape:snap-grids="true" inkscape:window-height="1056" inkscape:window-maximized="1" inkscape:window-width="1871" inkscape:window-x="49" inkscape:window-y="24" inkscape:zoom="5.6568543" objecttolerance="10" pagecolor="#ffffff" showgrid="true">
	<inkscape:grid  id="grid4150" originx="16" originy="16" type="xygrid"></inkscape:grid>
</sodipodi:namedview>
<g>
	<polygon class="st1" points="47.1,37.2 47.1,36.5 45.4,36.5 45.4,36.8 44.3,36.8 44.3,36.9 44.3,37.8 46.7,37.8 	"/>
	<path class="st1" d="M47.1,40c0,0,0.1-1,0-1S46,39.2,46,39.2l-1.7,0.5l0.4,0.5L47.1,40z"/>
	<polygon class="st1" points="50.6,45.7 51,44.2 49.9,44 48.7,44.6 49.4,46.1 	"/>
	<polygon class="st1" points="58.8,51.9 58.8,51 57,50.5 56.9,50.5 56.9,51.3 57.3,51.9 	"/>
	<polygon class="st1" points="54,49.4 52.4,49.4 51.4,50.6 51.2,51.8 52,52.2 	"/>
	<polygon class="st1" points="58.6,49.7 57.9,49.3 57.4,49.7 58,50.2 	"/>
	<polygon class="st1" points="55.7,47.9 55.7,49.1 56.7,48.8 	"/>
	<polygon class="st1" points="54.9,51.8 54.2,51.9 54,52.9 55.5,52.9 56.2,52.2 56.2,51.3 55.1,51.5 	"/>
	<polygon class="st1" points="54.9,51 55.8,50.8 56.5,50.4 56.5,49.4 54.9,49.4 	"/>
	<polygon class="st1" points="55.2,49.1 55.2,48.1 54.8,48.1 54.8,47.5 53,47.5 51.6,48.1 51.4,48.8 52.4,49.1 	"/>
	<path class="st1" d="M72,23.6c-26.7,0-48.4,21.7-48.4,48.4s21.7,48.4,48.4,48.4s48.4-21.7,48.4-48.4S98.7,23.6,72,23.6z
		 M106.2,41.7v0.9l-2,1l0.2,0.7h3.2l0.4-0.5c2.8,3.6,5.1,7.5,6.7,11.8h-1.3l-1.2-1.3l-0.2-2.2l-1.3,0.7l-0.7,2.6l-1.8-1.9l-0.1-1.8
		l-1.8-1.5l-0.6-0.6h-2l0.6,1.8l2.5,1.4l0.4,0.5l-0.5,0.3V55l-1.2,0.5l-1-0.2l-0.6-0.9l1.7,0.1l0.5-0.6l-3.7-2.5l-0.3-1l-1.5,1.3
		L99,51.2l-2.3,3l-0.5,1.2l-1.5,0.1h-2.2l-1.3-0.6l-0.4-2.6l0.5-1.2l2.2-0.5l2.4,0.5l0.3-1.3l-1-0.2l0.4-2.1l2.4-0.4l1.7-2.4
		l1.8-0.3l1.6,0.2h0.6l-0.3-2.3l-1.9,0.8l-0.7-1.7l-1.1-0.2L99.5,40l0.9-1l2.2-0.9l0.1-0.2C103.9,39.2,105.1,40.4,106.2,41.7z
		 M45.8,34.5h0.9l1.1,0.6l2,0.4l0.2,0.8l3.2,0.1l-0.4-1L50,35.3l0.7-0.6l-0.2-0.8H48l2.8-2.1h2.7l1.2,1.7l2.1,0.1l1.2-1.2l0.9,0.5
		L57,34.6c0,0-2.4,0-2.3,0c0.1,0,0.2,1.6,0.2,1.6l2.9-0.1l0.3-0.8l2-0.1l0.2-1.2h-1.1l0.4-1.1l0.9-0.3l3.1,0.2l-1.7,1.6l0.3,1.2
		l1.8,0.3l-0.1-2.2l1.7-0.9l3-0.3l4.4,2V36l1.4,0.4l-0.7,1.3h-2l-0.6,1.5l-4.5-1.1l3.6-1.9L68.8,35l-3.1,0.4l-0.3,0.3l0,0l-0.1,0.1
		l-0.9,0.9L63,36.9l0.1,0.7l0.5,0.2V38l-1.2,0.2L62.3,39h-1.1L61,37.6l-2.1,0.6l-4.2,2.5l0.5,1.7l1.2,0.8l2.3,0.3v2.7l1.1-0.2l1-2.1
		l2.5-0.8v-3.2l1.4-1.1l3.3,0.8l-0.2,2.1h0.9l2.5-1.2l0.1,2.8l1.8,1.1L73,46.1l-1.7,0.6l0.1,0.5l2.1,0.9v1.1l-0.6,0.1l0,0l-2.6-0.8
		l-0.1-0.8l0.8-0.5v-0.8l-1-0.2l-0.2,0.7l-1.4,0.2L68.3,47v0.1l-0.5,0.1l-0.4-0.8l-0.5-0.2h-1l-0.5,0.4v0.8l0.9,0.3l0.9,0.1L67,47.9
		l-0.8,0.9l-0.4-0.4L65,48.2l-2.1,2l0.3,0.2L60.1,52l-2.9,3L57,56.4l-2.9,1.9l-1.4,1.5l0.2,2.9l-2-0.9v-1.7h-5.6l-2.9,1.5l-1.3,2.3
		l-0.5,1.8l0.8,1.8l2.3,0.3l3.6-2.4l0.3,1.2l-1.1,2.1l2.7,0.5l0.3,4.2l3.8,0.6l2.4-2.7l2.9,0.6l1,1.4l2.8-0.2l0.1-0.8l1.5,0.8
		l1.7,2.7h3l1.1,1.9l0.2,2.4l3.3,1.2h4.1l1.2,2l1.8,0.6L80,85.5l-2,2.6l-0.6,5.7l-1.8,1.4L73,95l-0.9,1.6l0.7,2.9l-2.9,3.8L69,105
		l-2.8,1.3l-1.8,0.3l-0.1,0.8l1.3,0.4l-0.2,0.8l-1.2,1.1l0.7,0.9h1.4l-0.1,1.1l-0.4,1.1l-0.1,0.9l2.1,1.7l-0.3,0.9l-2.8-0.1
		l-2.8-2.4l-2.2-3.8l0.3-3.7l-1.6-2.2l0.7-3.7l-1-0.3V92c0,0-2.7-2.1-2.9-2.1s-1.4-0.3-1.4-0.3L53.4,88l-3.6-4.5l0.4-1.6l0.1-2.6
		l2.5-1.7l-0.3-2.9l-3.6-0.3L46,71.2l-2-0.5l-1.3-0.2l0.2-1.2L41.3,69v0.7l-4.1-1l-1.7-2.5l0.7-1.2l-2.6-3.8l-0.4-2.8h-1l0.4,2.7
		l1.8,2.8l-0.4,1l-1.5-0.2l-1.9-3.2v-3.7l-1.8-0.9C32,47.8,38,39.9,45.8,34.5z M107,101.5v-2.4l-1.8-2.4v-3.8l-1.4-1.4l-0.1-1.6
		l1.7-3.3l-3.3-5.8l0.4-3.9l-3-0.3l-1.1-1.1h-2l-1,0.9h-3.5l-0.1,0.3h-2l-4.5-5.1v-4l0.7-0.3l0.3-1.5h-1.1l-0.4-1.6l5.2-3.8v-2.7
		l2.5-1.4l1,0.1h2.1l1.6-0.9l5.3-0.4v2.7l4.2,1.1l0.8,0.6h0.8V58l2.4-0.2l2.3,1.7h2.9c1.1,4,1.8,8.1,1.8,12.5
		C117.8,83.2,113.7,93.5,107,101.5z"/>
</g>
</svg>
