<svg xmlns="http://www.w3.org/2000/svg" aria-label="Animated color gradient" role="img" cursor="default" width="1440" height="250" preserveAspectRatio="none" viewBox="0 0 1440 250">
    <defs>
        <linearGradient x1="0%" y1="100%" x2="100%" y2="0%" id="gradient1">
            <stop stop-color="rgba(255, 215, 38, 1)" offset="0"/>
            <stop stop-opacity="0" stop-color="rgba(255, 215, 38, 1)" offset="0.66"/>
        </linearGradient>
        <linearGradient x1="100%" y1="100%" x2="0%" y2="0%" id="gradient2">
            <stop stop-color="rgba(255, 215, 38, 1)" offset="0"/>
            <stop stop-opacity="0" stop-color="rgba(255, 215, 38, 1)" offset="0.66"/>
        </linearGradient>
    </defs>
    <g>
        <rect width="1440" height="250" x="0" y="0" fill="#231F20"/>
        <path d="M38 250L288 0L388.5 0L138.5 250z" fill="url(#gradient1)"/>
        <path d="M277.6 250L527.6 0L763.1 0L513.1 250z" fill="url(#gradient1)"/>
        <path d="M507.20000000000005 250L757.2 0L917.7 0L667.7 250z" fill="url(#gradient1)"/>
        <path d="M735.8000000000001 250L985.8000000000001 0L1093.8000000000002 0L843.8000000000001 250z" fill="url(#gradient1)"/>
        <path d="M1439 250L1189 0L953.5 0L1203.5 250z" fill="url(#gradient2)"/>
        <path d="M1199.4 250L949.4000000000001 0L809.9000000000001 0L1059.9 250z" fill="url(#gradient2)"/>
        <path d="M940.8 250L690.8 0L374.29999999999995 0L624.3 250z" fill="url(#gradient2)"/>
        <path d="M705.1999999999999 250L455.19999999999993 0L224.19999999999993 0L474.19999999999993 250z" fill="url(#gradient2)"/>
        <path d="M1202.1320639691864 250L1440 12.132063969186532L1440 250z" fill="url(#gradient1)"/>
        <path d="M0 250L237.86793603081347 250L 0 12.132063969186532z" fill="url(#gradient2)"/>
    </g>
</svg>
