<?xml version="1.0" encoding="utf-8"?>
<!-- Generator: Adobe Illustrator 26.1.0, SVG Export Plug-In . SVG Version: 6.00 Build 0)  -->
<svg version="1.1" id="Layer_1" xmlns="http://www.w3.org/2000/svg" xmlns:xlink="http://www.w3.org/1999/xlink" x="0px" y="0px"
	 viewBox="0 0 144 144" style="enable-background:new 0 0 144 144;" xml:space="preserve">
<style type="text/css">
	.st0{fill:url(#SVGID_1_);}
</style>
<path d="M42.1,91.3l11.1-8.5c5.9,7.6,12.1,11.2,19.1,11.2c7,0,13-3.4,18.5-11.1l11.2,8.3c-8.1,10.9-18.1,16.8-29.8,16.8
	C60.6,107.9,50.5,102.2,42.1,91.3z"/>
<linearGradient id="SVGID_1_" gradientUnits="userSpaceOnUse" x1="-544.2345" y1="321.0911" x2="-543.7705" y2="321.0911" gradientTransform="matrix(123.63 0 0 -76.2 67327.0781 24520.959)">
	<stop  offset="0" style="stop-color:#FF02F0"/>
	<stop  offset="1" style="stop-color:#FFC800"/>
</linearGradient>
<path class="st0" d="M72.2,54.5l-19.7,17l-9.1-10.6l28.8-24.8L100.7,61l-9.1,10.5C91.6,71.5,72.2,54.5,72.2,54.5z"/>
<path d="M42.1,91.3l11.1-8.5c5.9,7.6,12.1,11.2,19.1,11.2c7,0,13-3.4,18.5-11.1l11.2,8.3c-8.1,10.9-18.1,16.8-29.8,16.8
	C60.6,107.9,50.5,102.2,42.1,91.3z"/>
<path d="M72.2,54.5l-19.7,17l-9.1-10.6l28.8-24.8L100.7,61l-9.1,10.5C91.6,71.5,72.2,54.5,72.2,54.5z"/>
</svg>
