<?xml version="1.0" encoding="utf-8"?>
<!-- Generator: Adobe Illustrator 26.0.3, SVG Export Plug-In . SVG Version: 6.00 Build 0)  -->
<svg version="1.1" id="Laag_1" xmlns="http://www.w3.org/2000/svg" x="0px" y="0px"
     viewBox="0 0 144 144" style="enable-background:new 0 0 144 144;" xml:space="preserve">
<style type="text/css">
	.st0{fill:url(#rect12_00000146462736386320015280000010090412319209868161_);}
	.st1{fill:url(#SVGID_1_);}
	.st2{fill:url(#SVGID_00000167358474677944465450000016584286769026669247_);}
	.st3{fill:#FFFFFF;}
</style>
  <linearGradient id="rect12_00000006704911020128273110000006938958300303594118_" gradientUnits="userSpaceOnUse" x1="-78.2223" y1="-749.1317" x2="48.2647" y2="-912.7927" gradientTransform="matrix(1.0918 0 0 -1.0918 97.7594 -823.0748)">
	<stop offset="0.183" style="stop-color:#2770BE"/>
    <stop offset="0.632" style="stop-color:#1A4B7F"/>
</linearGradient>
  <path id="rect12" style="fill:url(#rect12_00000006704911020128273110000006938958300303594118_);" d="M0,0h144v144H0V0z"/>
  <g>
	<g>

			<linearGradient id="SVGID_1_" gradientUnits="userSpaceOnUse" x1="-362.9185" y1="6.8073" x2="-362.2986" y2="6.8073" gradientTransform="matrix(129.03 0 0 54.12 46859.3789 -265.1203)">
			<stop offset="0" style="stop-color:#8930FD"/>
              <stop offset="1" style="stop-color:#49CCF9"/>
		</linearGradient>
      <path class="st1" d="M32,97.8l14.8-11.3c7.9,10.2,16.2,15,25.5,15c9.3,0,17.4-4.6,24.8-14.8l15,11.1
			c-10.8,14.6-24.2,22.4-39.8,22.4C56.7,120,43.2,112.3,32,97.8z"/>

      <linearGradient id="SVGID_00000078759988608560489760000017905784631803799693_" gradientUnits="userSpaceOnUse" x1="-362.7926" y1="5.4261" x2="-362.1723" y2="5.4261" gradientTransform="matrix(123.63 0 0 76.2 44885.7891 -365.84)">
			<stop offset="0" style="stop-color:#FF02F0"/>
        <stop offset="1" style="stop-color:#FFC800"/>
		</linearGradient>
      <path style="fill:url(#SVGID_00000078759988608560489760000017905784631803799693_);" d="M72.2,48.6L45.9,71.3L33.7,57.1L72.2,24
			l38.2,33.2l-12.2,14C98.2,71.3,72.2,48.6,72.2,48.6z"/>
	</g>
    <g>
		<path class="st3" d="M32,97.8l14.8-11.3c7.9,10.2,16.2,15,25.5,15c9.3,0,17.4-4.6,24.8-14.8l15,11.1
			c-10.8,14.6-24.2,22.4-39.8,22.4C56.7,120,43.2,112.3,32,97.8z"/>
      <path class="st3" d="M72.2,48.6L45.9,71.3L33.7,57.1L72.2,24l38.2,33.2l-12.2,14C98.2,71.3,72.2,48.6,72.2,48.6z"/>
	</g>
</g>
</svg>
