<svg xmlns="http://www.w3.org/2000/svg" xmlns:xlink="http://www.w3.org/1999/xlink" viewBox="11 9 107 110" cursor="default"><style><![CDATA[.B{mix-blend-mode:multiply}]]></style><defs><path id="A" d="M11 115V13a4 4 0 0 1 4-4h18a4 4 0 0 1 4 4v34a4 4 0 0 0 4 4h34a4 4 0 0 0 4-4V13a4 4 0 0 1 4-4h18a4 4 0 0 1 4 4v102a4 4 0 0 1-4 4H83a4 4 0 0 1-4-4V76a4 4 0 0 0-4-4H41c-2.2 0-4 1.8-4 4v39a4 4 0 0 1-4 4H15a4 4 0 0 1-4-4z"/><g id="B"><rect x="92" y="93" width="26" height="26" rx="4"/><path d="M91.5 13c-.2-2.35 2.16-4 4.52-4H96h17.49c2.34 0 4.18 1.99 3.99 4.32l-4.66 64.06a3.99 3.99 0 0 1-3.97 3.62h-8.52c-2.05 0-3.76-1.55-3.96-3.59L91.5 13"/></g></defs><use xlink:href="#A" class="B" fill="#c21f73"/><g fill="#29aae2"><use xlink:href="#B" class="B"/><use xlink:href="#B"><animate attributeName="opacity" calcMode="spline" dur="15s" values="0;1;0" keyTimes="0;0.5;1" keySplines="0.42 0 0.58 1;0.42 0 0.58 1" repeatCount="indefinite"/></use></g></svg>